<?xml version="1.0" standalone="no"?>
<!DOCTYPE svg PUBLIC "-//W3C//DTD SVG 20010904//EN"
 "http://www.w3.org/TR/2001/REC-SVG-20010904/DTD/svg10.dtd">
<svg version="1.0" xmlns="http://www.w3.org/2000/svg"
 width="512.000000pt" height="512.000000pt" viewBox="0 0 512.000000 512.000000"
 preserveAspectRatio="xMidYMid meet">

<g transform="translate(0.000000,512.000000) scale(0.100000,-0.100000)"
fill="#000000" stroke="none">
<path d="M1725 4430 l-350 -350 680 -680 680 -680 -680 -680 -680 -680 353
-352 352 -353 1032 1033 1033 1032 -1030 1030 c-566 566 -1032 1030 -1035
1030 -3 0 -163 -158 -355 -350z m1165 -905 l805 -805 -807 -807 -808 -808
-127 128 -128 127 680 680 680 680 -680 680 -680 680 125 125 c69 69 127 125
130 125 3 0 367 -362 810 -805z"/>
</g>
</svg>
